<?xml version="1.0" encoding="UTF-8"?>
<svg id="_图层_1" data-name="图层_1" xmlns="http://www.w3.org/2000/svg" xmlns:xlink="http://www.w3.org/1999/xlink" version="1.1" viewBox="0 0 1024 1024">
  <!-- Generator: Adobe Illustrator 29.0.1, SVG Export Plug-In . SVG Version: 2.1.0 Build 192)  -->
  <defs>
    <style>
      .st0 {
        fill: url(#_未命名的渐变_2);
      }

      .st1 {
        fill: url(#_未命名的渐变_9);
      }

      .st2 {
        fill: #1cbeb7;
      }

      .st3 {
        fill: url(#_未命名的渐变_11);
      }

      .st4 {
        fill: url(#_未命名的渐变_21);
      }

      .st5 {
        fill: url(#_未命名的渐变_30);
      }

      .st6 {
        fill: url(#_未命名的渐变_33);
      }
    </style>
    <linearGradient id="_未命名的渐变_2" data-name="未命名的渐变 2" x1="530.65" y1="538.37" x2="11.91" y2="384.59" gradientUnits="userSpaceOnUse">
      <stop offset="0" stop-color="#fec02a"/>
      <stop offset=".14" stop-color="#fdc113"/>
      <stop offset=".58" stop-color="#f54448"/>
      <stop offset="1" stop-color="#ec1961"/>
    </linearGradient>
    <linearGradient id="_未命名的渐变_30" data-name="未命名的渐变 30" x1="776.7" y1="624.72" x2="544.46" y2="370.65" gradientUnits="userSpaceOnUse">
      <stop offset="0" stop-color="#393293"/>
      <stop offset=".13" stop-color="#313ca9"/>
      <stop offset=".7" stop-color="#0894c6"/>
      <stop offset=".93" stop-color="#00b7d1"/>
    </linearGradient>
    <linearGradient id="_未命名的渐变_9" data-name="未命名的渐变 9" x1="285.99" y1="533.44" x2="669.3" y2="533.44" gradientUnits="userSpaceOnUse">
      <stop offset="0" stop-color="#01a783"/>
      <stop offset="1" stop-color="#00839a"/>
    </linearGradient>
    <linearGradient id="_未命名的渐变_21" data-name="未命名的渐变 21" x1="569.57" y1="291.24" x2="437.98" y2="252.22" gradientUnits="userSpaceOnUse">
      <stop offset="0" stop-color="#f86732"/>
      <stop offset="1" stop-color="#f86a27"/>
    </linearGradient>
    <linearGradient id="_未命名的渐变_33" data-name="未命名的渐变 33" x1="527.18" y1="272.72" x2="441.32" y2="270.87" gradientUnits="userSpaceOnUse">
      <stop offset="0" stop-color="#f41d41" stop-opacity=".5"/>
      <stop offset="1" stop-color="#fa6e2d" stop-opacity=".8"/>
    </linearGradient>
    <linearGradient id="_未命名的渐变_11" data-name="未命名的渐变 11" x1="538.32" y1="441.9" x2="478.16" y2="424.06" gradientUnits="userSpaceOnUse">
      <stop offset="0" stop-color="#01adbc"/>
      <stop offset="1" stop-color="#0c729e"/>
    </linearGradient>
  </defs>
  <g id="ALL">
    <g id="V">
      <path id="left" class="st0" d="M405.71,874.18L88.35,220.39c-24.55-50.58-3.26-112.05,47.32-136.6l9.72-4.72c50.58-24.55,112.05-3.26,136.6,47.32l230.2,474.23-106.48,273.55Z"/>
      <path id="right" class="st5" d="M935.65,221.97l-319.56,658.3-9.18,18.92c-1.37,2.8-3.07,6.26-4.43,8.13-7.46,10.27-22.68,25.13-38.69,32.9l-9.72,4.72c-23.17,11.24-48.61,12.86-71.74,6.46-4.06-1.35-8.07-2.99-12-4.89l-9.72-4.72c-4.89-2.37-9.51-5.1-13.84-8.15-12.08-9.29-22.22-21.45-29.3-36.03l-24.85-51.21,119.97-245.77,229.43-472.66c24.55-50.58,86.02-71.87,136.6-47.32l9.72,4.72c50.58,24.55,71.87,86.02,47.32,136.6Z"/>
      <g id="center">
        <path class="st2" d="M654.96,307.3s124.24,394.83-249.26,566.88l-119.72-246.62s146.43,107.63,226.59-26.93l142.39-293.33Z"/>
        <path class="st1" d="M654.96,307.3s114.73,317.37-304.88,452.28l-64.09-132.03s149.43,107.04,226.2-26.93l142.77-293.33Z"/>
      </g>
    </g>
    <g id="dot">
      <g>
        <path class="st4" d="M567.04,274.17c0,30.4-24.64,55.04-55.04,55.04-10.55,0-20.4-2.97-28.76-8.11-15.76-9.67-26.28-27.07-26.28-46.93,0-23.57,14.81-43.69,35.65-51.52,6.02-2.28,12.57-3.52,19.39-3.52,30.4,0,55.04,24.64,55.04,55.04Z"/>
        <path class="st6" d="M525.29,270.54c0,25.21-18.13,46.16-42.05,50.56-15.76-9.67-26.28-27.07-26.28-46.93,0-23.57,14.81-43.69,35.65-51.52,19.12,7.47,32.68,26.09,32.68,47.89Z"/>
      </g>
      <circle class="st3" cx="512" cy="434.09" r="25.16"/>
    </g>
  </g>
</svg>